<?xml version="1.0" standalone="no"?>
<!DOCTYPE svg PUBLIC "-//W3C//DTD SVG 20010904//EN"
        "http://www.w3.org/TR/2001/REC-SVG-20010904/DTD/svg10.dtd">
<svg version="1.0" xmlns="http://www.w3.org/2000/svg"
     width="26.000000pt" height="26.000000pt" viewBox="0 0 26.000000 26.000000"
     preserveAspectRatio="xMidYMid meet">

    <g transform="translate(0.000000,26.000000) scale(0.100000,-0.100000)"
       fill="#000000" stroke="none">
        <path d="M42 237 c-12 -16 -42 -78 -42 -88 0 -4 15 -13 34 -20 25 -9 32 -17
29 -30 -7 -26 37 -45 66 -29 17 8 30 8 57 0 46 -16 64 -7 64 30 0 42 -29 66
-93 80 -44 9 -56 16 -59 32 -4 25 -42 42 -56 25z m98 -79 c69 -19 96 -38 87
-62 -5 -14 -10 -14 -42 0 -26 10 -41 12 -55 4 -27 -15 -47 -13 -32 2 19 19 15
26 -23 38 -37 12 -43 27 -23 63 l12 22 6 -25 c5 -21 17 -28 70 -42z"/>
        <path d="M0 25 c0 -13 18 -15 127 -13 90 2 128 7 131 16 3 9 -27 12 -127 12
-111 0 -131 -2 -131 -15z"/>
    </g>
</svg>
